<svg xmlns="http://www.w3.org/2000/svg" width="166.352" height="78.85" viewBox="0 0 166.352 78.85">
  <g id="Globo_Logo_1" data-name="Globo Logo 1" transform="translate(0.5 0.5)">
    <path id="Path_120" data-name="Path 120" d="M138.8,76.111a11.825,11.825,0,0,1-4.411-4.462,13.241,13.241,0,0,1-1.759-6.86,12.476,12.476,0,0,1,3.468-9.23,11.34,11.34,0,0,1,8.313-3.469,11.118,11.118,0,0,1,5.788,1.53,9.677,9.677,0,0,1,3.9,4.437V53.773q0-1.377,1.275-1.377t1.275,1.377V75.805q0,1.48-1.275,1.48t-1.275-1.48V71.42a10.133,10.133,0,0,1-3.978,4.539,10.7,10.7,0,0,1-5.711,1.633A11.345,11.345,0,0,1,138.8,76.111Zm-.815-18.819a10.308,10.308,0,0,0-2.754,7.548,10.164,10.164,0,0,0,2.83,7.522,9.135,9.135,0,0,0,6.681,2.83,8.971,8.971,0,0,0,6.63-2.83,10.308,10.308,0,0,0,2.779-7.547,10.385,10.385,0,0,0-2.7-7.523,8.912,8.912,0,0,0-6.682-2.8A9.134,9.134,0,0,0,137.982,57.292Zm-31.238,16.78a12.34,12.34,0,0,1-3.6-9.231,12.5,12.5,0,0,1,3.519-9.205,12.047,12.047,0,0,1,8.925-3.545,13.08,13.08,0,0,1,5.559,1.071,1.583,1.583,0,0,1,1.121,1.428,1.094,1.094,0,0,1-.076.434.968.968,0,0,1-.2.306,1.084,1.084,0,0,1-.281.2.675.675,0,0,1-.306.076,4.253,4.253,0,0,1-.918-.306,13.565,13.565,0,0,0-2.04-.586,12.536,12.536,0,0,0-2.7-.281,9.711,9.711,0,0,0-7.114,2.856,10.154,10.154,0,0,0-2.882,7.548,9.871,9.871,0,0,0,10.149,10.4,11.914,11.914,0,0,0,2.932-.331,11.143,11.143,0,0,0,1.989-.663,2.938,2.938,0,0,1,.893-.331.754.754,0,0,1,.587.255.955.955,0,0,1,.229.663,1.833,1.833,0,0,1-1.071,1.479,11.578,11.578,0,0,1-5.917,1.275A12.1,12.1,0,0,1,106.744,74.072Zm-26.035-.2a12.5,12.5,0,0,1-3.672-9.129,12.47,12.47,0,1,1,24.939,0A12.5,12.5,0,0,1,98.3,73.868a12.255,12.255,0,0,1-17.6,0Zm1.785-16.5a10.043,10.043,0,0,0-2.907,7.37,10.958,10.958,0,0,0,1.352,5.432,9.67,9.67,0,0,0,8.593,5.074,9.409,9.409,0,0,0,6.988-2.983,10.342,10.342,0,0,0,2.907-7.522,10.091,10.091,0,0,0-2.882-7.37,9.882,9.882,0,0,0-14.051,0ZM59.084,76.111q-1.274-.612-1.274-1.53a1.13,1.13,0,0,1,.229-.739.778.778,0,0,1,.637-.281,6.827,6.827,0,0,1,1.428.561,13.335,13.335,0,0,0,5.558,1.224,8.283,8.283,0,0,0,3.417-.662A5.389,5.389,0,0,0,71.35,72.9a4.241,4.241,0,0,0,.79-2.5,3.408,3.408,0,0,0-.382-1.633,5.084,5.084,0,0,0-.867-1.2,5.166,5.166,0,0,0-1.48-.944,16.9,16.9,0,0,0-1.683-.688q-.688-.229-2.014-.637-1.785-.56-2.856-.994a13.05,13.05,0,0,1-2.27-1.224A5.15,5.15,0,0,1,58.8,61.169a6.109,6.109,0,0,1,.433-5.992,6.687,6.687,0,0,1,2.907-2.27,11.121,11.121,0,0,1,4.437-.816A14.357,14.357,0,0,1,72.5,53.213q1.326.562,1.326,1.428a1.157,1.157,0,0,1-.229.714.661.661,0,0,1-.535.306A7.8,7.8,0,0,1,71.63,55.2a13.2,13.2,0,0,0-4.946-.918,7.375,7.375,0,0,0-4.335,1.122,3.51,3.51,0,0,0-1.581,3.009,3.322,3.322,0,0,0,.357,1.555,4.257,4.257,0,0,0,.841,1.148,5.244,5.244,0,0,0,1.454.893q.969.433,1.658.663t1.963.586q1.122.358,1.862.638t1.733.714a7.271,7.271,0,0,1,1.606.918,9.411,9.411,0,0,1,1.2,1.147,4.237,4.237,0,0,1,.867,1.555,6.524,6.524,0,0,1,.281,1.964,6.641,6.641,0,0,1-2.5,5.278,9.675,9.675,0,0,1-6.476,2.117A13.417,13.417,0,0,1,59.084,76.111Zm67.014-.1V53.672q0-1.377,1.275-1.377t1.275,1.377V76.009q0,1.377-1.275,1.377T126.1,76.009Zm37,.918a1.434,1.434,0,0,1-.383-1.02V42.044a1.49,1.49,0,0,1,.357-1.02,1.221,1.221,0,0,1,.968-.409,1.3,1.3,0,0,1,.663.179,1.113,1.113,0,0,1,.459.509,1.752,1.752,0,0,1,.153.74V75.908a1.49,1.49,0,0,1-.357,1.02,1.163,1.163,0,0,1-.918.408A1.242,1.242,0,0,1,163.1,76.928ZM2.2,46.436A3.149,3.149,0,0,1,.8,43.628a3.431,3.431,0,0,1,.312-1.455,2.841,2.841,0,0,1,.858-1.093,1.968,1.968,0,0,1,1.222-.416,15.45,15.45,0,0,1,2.288.728,13.147,13.147,0,0,0,5.513,1.092,8.995,8.995,0,0,0,6.058-1.9,6.9,6.9,0,0,0,2.21-5.538V33.7a9.772,9.772,0,0,1-8.112,3.847,10.5,10.5,0,0,1-7.982-3.406,12.286,12.286,0,0,1-3.2-8.762,12.265,12.265,0,0,1,3.25-8.788,10.506,10.506,0,0,1,7.93-3.432,9.8,9.8,0,0,1,8.372,4.108q.157-3.8,3.744-3.8a3.6,3.6,0,0,1,2.782,1.04A4.285,4.285,0,0,1,27,17.525v15.5q0,7.644-4.134,11.6t-11,3.952Q5.684,48.569,2.2,46.436Zm6.37-25.61a6.162,6.162,0,0,0-1.846,4.706,6.014,6.014,0,0,0,1.846,4.628A6.4,6.4,0,0,0,13.1,31.877a6.344,6.344,0,0,0,4.523-1.742,6.03,6.03,0,0,0,1.847-4.6,6.226,6.226,0,0,0-6.37-6.448A6.348,6.348,0,0,0,8.571,20.827Zm117.273,23.1a2.438,2.438,0,0,1,0-3.111,2.037,2.037,0,0,1,1.581-.612,2.146,2.146,0,0,1,1.1.281,1.846,1.846,0,0,1,.74.79,2.377,2.377,0,0,1,.255,1.071,2.19,2.19,0,0,1-.587,1.581,1.991,1.991,0,0,1-1.5.612A2.037,2.037,0,0,1,125.843,43.931ZM99.311,35.257A12.494,12.494,0,0,1,95.385,26a12.323,12.323,0,0,1,1.794-6.5,12.94,12.94,0,0,1,4.889-4.68,14.171,14.171,0,0,1,13.52,0,12.938,12.938,0,0,1,4.888,4.68,12.315,12.315,0,0,1,1.794,6.5,12.589,12.589,0,0,1-3.821,9.334,13.921,13.921,0,0,1-19.137-.078Zm6.241-14.924a5.886,5.886,0,0,0-2.366,2.288,6.657,6.657,0,0,0-.884,3.433,6.28,6.28,0,0,0,1.923,4.784,6.5,6.5,0,0,0,4.629,1.82,6.88,6.88,0,0,0,3.25-.779,5.848,5.848,0,0,0,2.366-2.314,6.809,6.809,0,0,0,.884-3.459,6.287,6.287,0,0,0-1.872-4.757,6.5,6.5,0,0,0-4.68-1.795A6.865,6.865,0,0,0,105.551,20.333ZM42.579,35.257A12.494,12.494,0,0,1,38.653,26a12.315,12.315,0,0,1,1.794-6.5,12.938,12.938,0,0,1,4.888-4.68,14.171,14.171,0,0,1,13.52,0,12.938,12.938,0,0,1,4.888,4.68A12.316,12.316,0,0,1,65.537,26a12.59,12.59,0,0,1-3.822,9.334,13.174,13.174,0,0,1-9.646,3.77A13.06,13.06,0,0,1,42.579,35.257Zm6.24-14.924a5.886,5.886,0,0,0-2.366,2.288,6.657,6.657,0,0,0-.884,3.433,6.281,6.281,0,0,0,1.924,4.784,6.494,6.494,0,0,0,4.628,1.82,6.877,6.877,0,0,0,3.25-.779,5.842,5.842,0,0,0,2.366-2.314,6.8,6.8,0,0,0,.884-3.459,6.284,6.284,0,0,0-1.872-4.757,6.5,6.5,0,0,0-4.68-1.795A6.87,6.87,0,0,0,48.819,20.333ZM76.8,37.883a7.709,7.709,0,0,1-3.407-3.406v.468a3.545,3.545,0,0,1-.962,2.625,3.861,3.861,0,0,1-2.73,1.014,3.372,3.372,0,0,1-2.522-1.066,4.1,4.1,0,0,1-.91-2.834V3.38A3.548,3.548,0,0,1,67.226.755,3.865,3.865,0,0,1,69.957-.259,3.372,3.372,0,0,1,72.479.806a4.1,4.1,0,0,1,.91,2.834V17.42a7.235,7.235,0,0,1,3.38-3.25A10.981,10.981,0,0,1,81.553,13.1a12.221,12.221,0,0,1,6.162,1.586,11.654,11.654,0,0,1,4.446,4.576,13.71,13.71,0,0,1,1.664,6.786,12.743,12.743,0,0,1-3.614,9.334A11.671,11.671,0,0,1,81.6,39.053,10.318,10.318,0,0,1,76.8,37.883ZM75.157,21.347a6.251,6.251,0,0,0-1.872,4.731,6.251,6.251,0,0,0,1.872,4.732,6.428,6.428,0,0,0,4.628,1.795,6.561,6.561,0,0,0,4.68-1.821A6.281,6.281,0,0,0,86.389,26a6.113,6.113,0,0,0-1.9-4.654,6.555,6.555,0,0,0-4.68-1.795A6.462,6.462,0,0,0,75.157,21.347ZM30.333,37.831a4.349,4.349,0,0,1-.988-2.99V5.357a4.272,4.272,0,0,1,.988-2.938A3.484,3.484,0,0,1,33.089,1.3a3.485,3.485,0,0,1,2.757,1.119,4.276,4.276,0,0,1,.987,2.938V34.841a4.375,4.375,0,0,1-.987,2.964,3.446,3.446,0,0,1-2.757,1.144A3.487,3.487,0,0,1,30.333,37.831Zm39.364.754h0ZM69.749-.259h0Z" transform="translate(0.035 0.259)" fill="#0669de" stroke="rgba(0,0,0,0)" stroke-width="1"/>
  </g>
</svg>
